<?xml version="1.0" encoding="utf-8"?>
<svg viewBox="99.752 298.476 259.25 292.996" xmlns="http://www.w3.org/2000/svg" xmlns:bx="https://boxy-svg.com" width="259.25px" height="292.996px"><defs><filter id="drop-shadow-filter-0" bx:preset="drop-shadow 1 0 2 3 1 rgba(0,0,0,0.3)" color-interpolation-filters="sRGB" x="-50%" y="-50%" width="200%" height="200%"><feGaussianBlur in="SourceAlpha" stdDeviation="3"/><feOffset dx="0" dy="2"/><feComponentTransfer result="offsetblur"><feFuncA id="spread-ctrl" type="linear" slope="2"/></feComponentTransfer><feFlood flood-color="rgba(0,0,0,0.3)"/><feComposite in2="offsetblur" operator="in"/><feMerge><feMergeNode/><feMergeNode in="SourceGraphic"/></feMerge></filter></defs><path style="fill-rule: nonzero; paint-order: fill; stroke: rgba(208, 211, 216, 0.655); fill: rgba(208, 211, 216, 0.682); filter: url(&quot;#drop-shadow-filter-0&quot;);" d="M 161.528 416.67 C 162.465 410.054 146.295 368.854 140.562 358.136 C 134.667 347.117 123.392 352.137 123.392 352.137 C 121.271 352.87 108.827 359.34 107.12 366.293 C 105.673 379.287 121.215 408.335 128.084 418.849 C 133.03 426.42 139.235 431.258 148.352 429.258 C 155.7 427.646 156.556 427 158.318 424.99 C 160.408 422.603 160.824 421.644 161.528 416.67 Z"/><path style="fill-rule: nonzero; paint-order: fill; stroke: rgba(208, 211, 216, 0.655); fill: rgba(208, 211, 216, 0.682); filter: url(&quot;#drop-shadow-filter-0&quot;);" d="M 206.965 407.847 C 207.351 399.387 200.166 336.298 193.824 327.271 C 182.9 311.729 167.316 319.642 167.316 319.642 C 162.436 321.165 152.908 327.637 151.2 336.483 C 149.753 353.018 166.003 399.654 172.009 413.393 C 175.369 421.079 185.307 426.736 194.122 424.96 C 201.597 423.454 206.475 418.586 206.965 407.847 Z"/><path style="paint-order: fill; stroke: rgba(208, 211, 216, 0.655); fill: rgba(208, 211, 216, 0.682); filter: url(&quot;#drop-shadow-filter-0&quot;);" d="M 223.91 387.091 C 225.086 377.018 230.384 377.633 246.157 377.701 C 252.875 377.731 297.4 356.193 299.146 354.627 C 313.429 347.813 326.917 355.773 335.135 366.795 C 324.823 375.64 327.551 379.469 320.202 390.78 C 315.755 397.625 290.117 409.423 267.617 408.246 C 254.607 407.565 249.347 406.202 242.939 404.697 C 233.396 402.333 223.781 396.284 223.91 387.091 Z"/><path style="transform-box: fill-box; transform-origin: 50% 50%; paint-order: fill; stroke: rgba(208, 211, 216, 0.655); fill: rgba(208, 211, 216, 0.682); filter: url(&quot;#drop-shadow-filter-0&quot;);" d="M 270.335 359.696 C 263.784 327.469 268.876 317.063 281.636 308.934 C 297.625 298.747 314.638 307.957 315.563 318.597 L 316.719 334.993 C 294.399 342.978 284.69 344.287 270.335 359.696 Z" transform="matrix(0.984808, 0.173648, -0.173648, 0.984808, 0.000002, 0.000002)"/><path style="paint-order: fill; stroke: rgba(208, 211, 216, 0.655); fill: rgba(208, 211, 216, 0.682); filter: url(&quot;#drop-shadow-filter-0&quot;);" d="M 219.06 373.697 C 208.551 331.484 208.649 313.178 221.386 308.194 L 225.107 306.756 C 241.336 302.786 252.535 311.849 252.748 323.658 L 252.693 360.156 C 239.429 359.675 229.222 359.577 219.06 373.697 Z"/><path style="paint-order: fill; stroke: rgba(208, 211, 216, 0.655); fill: rgba(208, 211, 216, 0.682); filter: url(&quot;#drop-shadow-filter-0&quot;);" d="M 342.17 385.308 C 332.103 401.548 308.312 421.073 263.874 425.263 L 239.448 427.499 C 208.96 435.412 203.077 449.026 188.705 475.219 C 191.61 453.488 197.095 443.097 210.777 429.612 C 218.368 422.13 219.697 421.791 229.668 419.705 C 228.165 418.325 219.43 409.974 216.738 407.819 C 216.651 417.623 215.481 421.256 208.311 425.965 C 193.425 435.741 186.338 435.735 172.303 432.594 C 152.262 447.042 119.974 446.523 111.076 417.227 C 106.547 480.662 116.355 526.248 136.526 545.929 L 138.186 583.469 L 250.732 585.845 L 268.596 585.641 C 263.621 577.274 264.518 552.941 266.909 539 C 270.98 515.254 294.737 501.554 306.74 492.949 C 324.223 480.418 350.128 465.965 353.906 446.504 C 357.684 427.042 352.032 394.337 342.17 385.308 Z"/></svg>