<?xml version="1.0" encoding="UTF-8"?>
<svg version="1.1" xmlns="http://www.w3.org/2000/svg" width="512" height="512">
<path d="M0 0 C0 0.66 0 1.32 0 2 C3.63 2 7.26 2 11 2 C11 2.66 11 3.32 11 4 C15.29 4 19.58 4 24 4 C24 4.99 24 5.98 24 7 C20.04 7 16.08 7 12 7 C12 7.66 12 8.32 12 9 C4.74 9 -2.52 9 -10 9 C-10 9.66 -10 10.32 -10 11 C-15.94 11.495 -15.94 11.495 -22 12 C-22 12.66 -22 13.32 -22 14 C-24.64 14 -27.28 14 -30 14 C-30 14.66 -30 15.32 -30 16 C-32.31 16.33 -34.62 16.66 -37 17 C-37 17.66 -37 18.32 -37 19 C-39.31 19 -41.62 19 -44 19 C-44 19.66 -44 20.32 -44 21 C-46.31 21.33 -48.62 21.66 -51 22 C-51 22.66 -51 23.32 -51 24 C-52.65 24 -54.3 24 -56 24 C-56 24.66 -56 25.32 -56 26 C-56.66 26 -57.32 26 -58 26 C-58 26.66 -58 27.32 -58 28 C-60.64 28.33 -63.28 28.66 -66 29 C-66 29.66 -66 30.32 -66 31 C-66.66 31 -67.32 31 -68 31 C-68 31.66 -68 32.32 -68 33 C-70.475 33.495 -70.475 33.495 -73 34 C-73 34.66 -73 35.32 -73 36 C-73.99 36 -74.98 36 -76 36 C-76 36.66 -76 37.32 -76 38 C-76.66 38 -77.32 38 -78 38 C-78 38.66 -78 39.32 -78 40 C-78.639375 40.12375 -79.27875 40.2475 -79.9375 40.375 C-80.618125 40.58125 -81.29875 40.7875 -82 41 C-82.33 41.66 -82.66 42.32 -83 43 C-83.66 43 -84.32 43 -85 43 C-85 43.66 -85 44.32 -85 45 C-85.99 45 -86.98 45 -88 45 C-88 45.99 -88 46.98 -88 48 C-88.66 48 -89.32 48 -90 48 C-90 48.66 -90 49.32 -90 50 C-91.32 50 -92.64 50 -94 50 C-94.33 50.99 -94.66 51.98 -95 53 C-95.66 53 -96.32 53 -97 53 C-97 53.66 -97 54.32 -97 55 C-97.66 55 -98.32 55 -99 55 C-99.33 55.99 -99.66 56.98 -100 58 C-100.66 58 -101.32 58 -102 58 C-102 58.66 -102 59.32 -102 60 C-102.66 60 -103.32 60 -104 60 C-104 60.66 -104 61.32 -104 62 C-105.375 63.625 -105.375 63.625 -107 65 C-107.66 65 -108.32 65 -109 65 C-109 65.66 -109 66.32 -109 67 C-109.66 67 -110.32 67 -111 67 C-111 67.99 -111 68.98 -111 70 C-111.99 70 -112.98 70 -114 70 C-114 71.32 -114 72.64 -114 74 C-115.375 75.75 -115.375 75.75 -117 77 C-117.66 77 -118.32 77 -119 77 C-119 78.32 -119 79.64 -119 81 C-120.32 81.33 -121.64 81.66 -123 82 C-123.33 84.31 -123.66 86.62 -124 89 C-124.66 89 -125.32 89 -126 89 C-126 89.66 -126 90.32 -126 91 C-126.99 91.495 -126.99 91.495 -128 92 C-128.65213292 94.02463255 -128.65213292 94.02463255 -129 96 C-129.66 96 -130.32 96 -131 96 C-131 96.99 -131 97.98 -131 99 C-131.66 99 -132.32 99 -133 99 C-133 99.66 -133 100.32 -133 101 C-133.66 101 -134.32 101 -135 101 C-135.33 103.97 -135.66 106.94 -136 110 C-136.66 110 -137.32 110 -138 110 C-138 110.99 -138 111.98 -138 113 C-138.66 113 -139.32 113 -140 113 C-140.33 115.64 -140.66 118.28 -141 121 C-141.66 121 -142.32 121 -143 121 C-143 122.98 -143 124.96 -143 127 C-143.66 127 -144.32 127 -145 127 C-144.979375 128.2375 -144.95875 129.475 -144.9375 130.75 C-144.93233319 133.6640825 -145.06984442 136.20953327 -146 139 C-146.66 139 -147.32 139 -148 139 C-148 140.98 -148 142.96 -148 145 C-148.66 145 -149.32 145 -150 145 C-150 150.28 -150 155.56 -150 161 C-150.66 161 -151.32 161 -152 161 C-152 173.21 -152 185.42 -152 198 C-151.34 198 -150.68 198 -150 198 C-150 203.28 -150 208.56 -150 214 C-149.34 214 -148.68 214 -148 214 C-148 215.98 -148 217.96 -148 220 C-147.34 220 -146.68 220 -146 220 C-145.06380187 223.15506142 -144.8942877 225.96586502 -144.9375 229.25 C-144.94652344 230.14203125 -144.95554687 231.0340625 -144.96484375 231.953125 C-144.97644531 232.62859375 -144.98804688 233.3040625 -145 234 C-144.34 234 -143.68 234 -143 234 C-143 235.32 -143 236.64 -143 238 C-142.01 238.33 -141.02 238.66 -140 239 C-140 241.31 -140 243.62 -140 246 C-139.34 246 -138.68 246 -138 246 C-138 246.99 -138 247.98 -138 249 C-137.34 249 -136.68 249 -136 249 C-135.505 253.455 -135.505 253.455 -135 258 C-134.34 258 -133.68 258 -133 258 C-133 258.66 -133 259.32 -133 260 C-132.34 260 -131.68 260 -131 260 C-131 260.99 -131 261.98 -131 263 C-130.34 263 -129.68 263 -129 263 C-128.67 265.31 -128.34 267.62 -128 270 C-126.68 270 -125.36 270 -124 270 C-123.67 272.31 -123.34 274.62 -123 277 C-121.68 277.33 -120.36 277.66 -119 278 C-119 279.32 -119 280.64 -119 282 C-118.34 282 -117.68 282 -117 282 C-115.375 283.25 -115.375 283.25 -114 285 C-114 286.32 -114 287.64 -114 289 C-113.01 289.33 -112.02 289.66 -111 290 C-111 290.66 -111 291.32 -111 292 C-110.34 292 -109.68 292 -109 292 C-109 293.32 -109 294.64 -109 296 C-107.35 296.33 -105.7 296.66 -104 297 C-104 298.32 -104 299.64 -104 301 C-102.35 301.33 -100.7 301.66 -99 302 C-99 303.32 -99 304.64 -99 306 C-97.68 306 -96.36 306 -95 306 C-94.67 307.65 -94.34 309.3 -94 311 C-92.02 311 -90.04 311 -88 311 C-87.67 312.65 -87.34 314.3 -87 316 C-85.68 316 -84.36 316 -83 316 C-82.67 316.66 -82.34 317.32 -82 318 C-79.97536745 318.65213292 -79.97536745 318.65213292 -78 319 C-78 319.66 -78 320.32 -78 321 C-77.34 321 -76.68 321 -76 321 C-76 321.66 -76 322.32 -76 323 C-75.01 323 -74.02 323 -73 323 C-73 323.99 -73 324.98 -73 326 C-71.35 326 -69.7 326 -68 326 C-68 326.66 -68 327.32 -68 328 C-67.34 328 -66.68 328 -66 328 C-66 328.66 -66 329.32 -66 330 C-63.36 330.33 -60.72 330.66 -58 331 C-58 331.66 -58 332.32 -58 333 C-57.34 333 -56.68 333 -56 333 C-56 333.66 -56 334.32 -56 335 C-55.01 335 -54.02 335 -53 335 C-53 335.66 -53 336.32 -53 337 C-50.03 337.33 -47.06 337.66 -44 338 C-44 338.66 -44 339.32 -44 340 C-43.34 340 -42.68 340 -42 340 C-42 340.66 -42 341.32 -42 342 C-40.7625 341.979375 -39.525 341.95875 -38.25 341.9375 C-35.3359175 341.93233319 -32.79046673 342.06984442 -30 343 C-30 343.66 -30 344.32 -30 345 C-29.01 345 -28.02 345 -27 345 C-27 345.66 -27 346.32 -27 347 C-26.35933594 346.98839844 -25.71867188 346.97679687 -25.05859375 346.96484375 C-19.91346778 346.91116881 -15.06975076 347.11830422 -10 348 C-10 348.66 -10 349.32 -10 350 C-7.03 350 -4.06 350 -1 350 C-1 350.66 -1 351.32 -1 352 C12.86 352 26.72 352 41 352 C41 351.34 41 350.68 41 350 C43.97 350 46.94 350 50 350 C50 349.34 50 348.68 50 348 C55.70690634 347.00749455 61.21408489 346.89522488 67 347 C67 346.34 67 345.68 67 345 C67.99 345 68.98 345 70 345 C70 344.34 70 343.68 70 343 C73.63 342.67 77.26 342.34 81 342 C81 341.34 81 340.68 81 340 C82.65 340 84.3 340 86 340 C86.33 339.01 86.66 338.02 87 337 C89.31 337 91.62 337 94 337 C94 336.34 94 335.68 94 335 C94.66 335 95.32 335 96 335 C96 334.34 96 333.68 96 333 C96.99 333 97.98 333 99 333 C99 332.34 99 331.68 99 331 C101.31 330.67 103.62 330.34 106 330 C106 329.34 106 328.68 106 328 C106.66 328 107.32 328 108 328 C108 327.34 108 326.68 108 326 C110.31 325.67 112.62 325.34 115 325 C115.33 323.68 115.66 322.36 116 321 C117.32 321 118.64 321 120 321 C120.33 320.01 120.66 319.02 121 318 C121.66 318 122.32 318 123 318 C123 317.34 123 316.68 123 316 C124.32 316 125.64 316 127 316 C127.33 315.01 127.66 314.02 128 313 C128.66 313 129.32 313 130 313 C130 312.34 130 311.68 130 311 C130.66 311 131.32 311 132 311 C132.33 310.01 132.66 309.02 133 308 C133.66 308 134.32 308 135 308 C135 307.34 135 306.68 135 306 C136.32 306 137.64 306 139 306 C139.33 304.68 139.66 303.36 140 302 C141.32 301.67 142.64 301.34 144 301 C144.33 299.68 144.66 298.36 145 297 C145.66 297 146.32 297 147 297 C147 296.01 147 295.02 147 294 C147.66 294 148.32 294 149 294 C149.33 292.68 149.66 291.36 150 290 C151.32 289.67 152.64 289.34 154 289 C154 287.68 154 286.36 154 285 C154.99 285 155.98 285 157 285 C157 283.35 157 281.7 157 280 C158.32 280 159.64 280 161 280 C161.33 278.35 161.66 276.7 162 275 C162.66 275 163.32 275 164 275 C164 274.01 164 273.02 164 272 C164.66 272 165.32 272 166 272 C166 271.34 166 270.68 166 270 C166.66 270 167.32 270 168 270 C168 268.35 168 266.7 168 265 C168.99 265 169.98 265 171 265 C171 263.68 171 262.36 171 261 C171.66 261 172.32 261 173 261 C173 259.35 173 257.7 173 256 C173.99 255.67 174.98 255.34 176 255 C176 253.68 176 252.36 176 251 C176.66 251 177.32 251 178 251 C178 248.69 178 246.38 178 244 C178.66 243.67 179.32 243.34 180 243 C180.65213292 240.97536745 180.65213292 240.97536745 181 239 C181.66 239 182.32 239 183 239 C183 236.36 183 233.72 183 231 C183.66 231 184.32 231 185 231 C185.33 228.69 185.66 226.38 186 224 C186.66 224 187.32 224 188 224 C188 220.04 188 216.08 188 212 C188.66 212 189.32 212 190 212 C189.9690625 210.081875 189.9690625 210.081875 189.9375 208.125 C189.92941245 203.03792983 190.40979211 198.0483853 191 193 C191.66 193 192.32 193 193 193 C193 184.75 193 176.5 193 168 C192.34 168 191.68 168 191 168 C191 166.02 191 164.04 191 162 C192.32 162 193.64 162 195 162 C195 163.98 195 165.96 195 168 C195.66 168 196.32 168 197 168 C198.32286246 172.96073422 198.08893197 177.91111512 198 183 C198.66 183 199.32 183 200 183 C200 184.65 200 186.3 200 188 C200.66 188 201.32 188 202 188 C203.07131214 196.31675727 203.1469152 204.57486218 203.1328125 212.94921875 C203.13348784 214.37547319 203.13445977 215.80172752 203.13571167 217.22798157 C203.1371764 220.19895538 203.13507283 223.16989888 203.13037109 226.14086914 C203.12465885 229.93339019 203.12797004 233.72584068 203.13394356 237.51835918 C203.13756904 240.45671616 203.13640173 243.39505659 203.13381577 246.33341408 C203.1331528 247.73154522 203.13395266 249.1296779 203.13629532 250.52780724 C203.13885638 252.48427677 203.13425609 254.44075163 203.12939453 256.3972168 C203.12820114 258.06073433 203.12820114 258.06073433 203.12698364 259.75785828 C202.99109352 263.22739989 202.54603223 266.57301176 202 270 C201.34 270 200.68 270 200 270 C200 272.31 200 274.62 200 277 C199.34 277 198.68 277 198 277 C198.01160156 277.80824219 198.02320313 278.61648438 198.03515625 279.44921875 C198.04869141 281.05216797 198.04869141 281.05216797 198.0625 282.6875 C198.07990234 284.27111328 198.07990234 284.27111328 198.09765625 285.88671875 C198.00865425 288.72410262 197.64939838 291.2438919 197 294 C196.34 294 195.68 294 195 294 C195 294.99 195 295.98 195 297 C194.34 297 193.68 297 193 297 C193 299.97 193 302.94 193 306 C192.34 306 191.68 306 191 306 C190.67 308.31 190.34 310.62 190 313 C189.34 313 188.68 313 188 313 C188 314.98 188 316.96 188 319 C187.34 319 186.68 319 186 319 C185.67 321.31 185.34 323.62 185 326 C184.34 326 183.68 326 183 326 C183 327.65 183 329.3 183 331 C182.34 331 181.68 331 181 331 C180.67 332.98 180.34 334.96 180 337 C179.34 337 178.68 337 178 337 C178 338.65 178 340.3 178 342 C176.68 342 175.36 342 174 342 C173.67 344.64 173.34 347.28 173 350 C172.34 350 171.68 350 171 350 C171 350.66 171 351.32 171 352 C170.34 352 169.68 352 169 352 C168.67 353.65 168.34 355.3 168 357 C167.34 357 166.68 357 166 357 C166 357.66 166 358.32 166 359 C165.34 359 164.68 359 164 359 C164 359.99 164 360.98 164 362 C163.34 362 162.68 362 162 362 C161.67 363.65 161.34 365.3 161 367 C159.68 367 158.36 367 157 367 C157 368.65 157 370.3 157 372 C156.01 372 155.02 372 154 372 C154 373.32 154 374.64 154 376 C152.68 376.33 151.36 376.66 150 377 C149.67 378.32 149.34 379.64 149 381 C148.34 381 147.68 381 147 381 C147 381.99 147 382.98 147 384 C146.34 384 145.68 384 145 384 C144.67 385.32 144.34 386.64 144 388 C142.68 388.33 141.36 388.66 140 389 C139.67 390.32 139.34 391.64 139 393 C138.34 393 137.68 393 137 393 C137 393.66 137 394.32 137 395 C135.68 395.33 134.36 395.66 133 396 C132.67 397.32 132.34 398.64 132 400 C130.68 400.33 129.36 400.66 128 401 C128 401.66 128 402.32 128 403 C127.01 403 126.02 403 125 403 C125 403.66 125 404.32 125 405 C123.68 405.33 122.36 405.66 121 406 C120.67 407.32 120.34 408.64 120 410 C118.68 410 117.36 410 116 410 C116 410.99 116 411.98 116 413 C114.35 413 112.7 413 111 413 C110.67 414.65 110.34 416.3 110 418 C108.68 418 107.36 418 106 418 C106 418.66 106 419.32 106 420 C105.01 420 104.02 420 103 420 C103 420.66 103 421.32 103 422 C102.34 422 101.68 422 101 422 C101 422.66 101 423.32 101 424 C99.35 424.33 97.7 424.66 96 425 C96 425.66 96 426.32 96 427 C95.34 427 94.68 427 94 427 C94 427.66 94 428.32 94 429 C91.69 429.33 89.38 429.66 87 430 C86.67 431.32 86.34 432.64 86 434 C84.35 434 82.7 434 81 434 C81 434.66 81 435.32 81 436 C79.02 436.33 77.04 436.66 75 437 C75 437.66 75 438.32 75 439 C73.35 439 71.7 439 70 439 C70 439.66 70 440.32 70 441 C67.69 441.33 65.38 441.66 63 442 C63 442.66 63 443.32 63 444 C61.02 444 59.04 444 57 444 C57 444.66 57 445.32 57 446 C54.69 446.33 52.38 446.66 50 447 C50 447.66 50 448.32 50 449 C47.03 449 44.06 449 41 449 C41 449.66 41 450.32 41 451 C40.01 451 39.02 451 38 451 C38 451.66 38 452.32 38 453 C34.32612505 453.85298376 30.9552607 454.10789471 27.1875 454.0625 C26.21167969 454.05347656 25.23585938 454.04445313 24.23046875 454.03515625 C23.12638672 454.01775391 23.12638672 454.01775391 22 454 C22 454.66 22 455.32 22 456 C19.36 456 16.72 456 14 456 C14 456.66 14 457.32 14 458 C9.42214604 458.72940309 5.03112713 459.12607021 0.3972168 459.12939453 C-0.87132645 459.13254669 -2.13986969 459.13569885 -3.44685364 459.13894653 C-4.81482986 459.13715582 -6.18280577 459.13510464 -7.55078125 459.1328125 C-8.97413652 459.13348742 -10.39749168 459.13445902 -11.82084656 459.13571167 C-14.79716087 459.13718121 -17.77344506 459.13505902 -20.74975586 459.13037109 C-24.53870466 459.1246899 -28.32758235 459.12794733 -32.11652851 459.13394356 C-35.05501323 459.13758267 -37.99348152 459.13639503 -40.93196678 459.13381577 C-42.32761837 459.13315492 -43.72327151 459.133945 -45.11892128 459.13629532 C-52.8089662 459.14640145 -60.36706732 458.98322618 -68 458 C-68 457.34 -68 456.68 -68 456 C-69.65 456 -71.3 456 -73 456 C-73 455.34 -73 454.68 -73 454 C-73.83144531 454.01160156 -74.66289062 454.02320313 -75.51953125 454.03515625 C-77.14955078 454.04869141 -77.14955078 454.04869141 -78.8125 454.0625 C-79.89144531 454.07410156 -80.97039062 454.08570313 -82.08203125 454.09765625 C-85 454 -85 454 -88 453 C-88 452.34 -88 451.68 -88 451 C-89.98 451 -91.96 451 -94 451 C-94 450.34 -94 449.68 -94 449 C-96.64 449 -99.28 449 -102 449 C-102 448.34 -102 447.68 -102 447 C-104.31 446.67 -106.62 446.34 -109 446 C-109 445.34 -109 444.68 -109 444 C-110.65 444 -112.3 444 -114 444 C-114 443.34 -114 442.68 -114 442 C-116.31 441.67 -118.62 441.34 -121 441 C-121 440.34 -121 439.68 -121 439 C-122.65 439 -124.3 439 -126 439 C-126 438.34 -126 437.68 -126 437 C-127.65 436.67 -129.3 436.34 -131 436 C-131 435.34 -131 434.68 -131 434 C-132.65 434 -134.3 434 -136 434 C-136 433.34 -136 432.68 -136 432 C-137.32 432 -138.64 432 -140 432 C-140.33 431.34 -140.66 430.68 -141 430 C-143.02463255 429.34786708 -143.02463255 429.34786708 -145 429 C-145 428.34 -145 427.68 -145 427 C-145.99 427 -146.98 427 -148 427 C-148 426.34 -148 425.68 -148 425 C-149.65 424.67 -151.3 424.34 -153 424 C-153 423.34 -153 422.68 -153 422 C-153.66 422 -154.32 422 -155 422 C-155 421.34 -155 420.68 -155 420 C-155.66 420 -156.32 420 -157 420 C-157 419.34 -157 418.68 -157 418 C-159.31 417.67 -161.62 417.34 -164 417 C-164.33 415.68 -164.66 414.36 -165 413 C-166.65 412.67 -168.3 412.34 -170 412 C-170 410.68 -170 409.36 -170 408 C-171.65 408 -173.3 408 -175 408 C-175 407.01 -175 406.02 -175 405 C-175.66 405 -176.32 405 -177 405 C-177 404.34 -177 403.68 -177 403 C-178.32 403 -179.64 403 -181 403 C-181.33 401.35 -181.66 399.7 -182 398 C-183.32 398 -184.64 398 -186 398 C-186 397.01 -186 396.02 -186 395 C-186.99 395 -187.98 395 -189 395 C-189 394.34 -189 393.68 -189 393 C-189.66 393 -190.32 393 -191 393 C-191 391.68 -191 390.36 -191 389 C-192.65 388.67 -194.3 388.34 -196 388 C-196 386.68 -196 385.36 -196 384 C-197.65 383.67 -199.3 383.34 -201 383 C-201 381.68 -201 380.36 -201 379 C-201.66 379 -202.32 379 -203 379 C-204.625 377.75 -204.625 377.75 -206 376 C-206 374.68 -206 373.36 -206 372 C-207.32 371.67 -208.64 371.34 -210 371 C-210.33 369.35 -210.66 367.7 -211 366 C-211.66 366 -212.32 366 -213 366 C-213 365.34 -213 364.68 -213 364 C-213.66 364 -214.32 364 -215 364 C-215.33 362.35 -215.66 360.7 -216 359 C-216.66 359 -217.32 359 -218 359 C-218 358.34 -218 357.68 -218 357 C-218.66 357 -219.32 357 -220 357 C-220 356.34 -220 355.68 -220 355 C-220.66 355 -221.32 355 -222 355 C-222.495 351.535 -222.495 351.535 -223 348 C-224.32 347.67 -225.64 347.34 -227 347 C-227.33 344.69 -227.66 342.38 -228 340 C-228.66 340 -229.32 340 -230 340 C-230 339.01 -230 338.02 -230 337 C-230.66 337 -231.32 337 -232 337 C-232 335.02 -232 333.04 -232 331 C-232.99 330.67 -233.98 330.34 -235 330 C-235 328.68 -235 327.36 -235 326 C-235.66 326 -236.32 326 -237 326 C-237 324.35 -237 322.7 -237 321 C-237.66 321 -238.32 321 -239 321 C-239.33 318.69 -239.66 316.38 -240 314 C-240.66 314 -241.32 314 -242 314 C-242 312.02 -242 310.04 -242 308 C-242.66 308 -243.32 308 -244 308 C-244.33 305.69 -244.66 303.38 -245 301 C-245.66 301 -246.32 301 -247 301 C-247 297.37 -247 293.74 -247 290 C-247.66 290 -248.32 290 -249 290 C-249 288.35 -249 286.7 -249 285 C-249.66 285 -250.32 285 -251 285 C-251.95619733 281.00204108 -252.1039592 277.29196078 -252.0625 273.1875 C-252.05347656 272.02605469 -252.04445312 270.86460937 -252.03515625 269.66796875 C-252.02355469 268.78753906 -252.01195312 267.90710938 -252 267 C-252.66 267 -253.32 267 -254 267 C-254 264.03 -254 261.06 -254 258 C-254.66 258 -255.32 258 -256 258 C-257.16567301 239.59901888 -257.43853361 221.39267972 -256 203 C-255.34 203 -254.68 203 -254 203 C-254 199.7 -254 196.4 -254 193 C-253.34 193 -252.68 193 -252 193 C-252.01160156 192.13117188 -252.02320313 191.26234375 -252.03515625 190.3671875 C-252.04417969 189.21476563 -252.05320313 188.06234375 -252.0625 186.875 C-252.07410156 185.73804688 -252.08570313 184.60109375 -252.09765625 183.4296875 C-252.005327 180.1870844 -251.61389906 177.18067388 -251 174 C-250.34 174 -249.68 174 -249 174 C-249 172.35 -249 170.7 -249 169 C-248.34 169 -247.68 169 -247 169 C-247 166.36 -247 163.72 -247 161 C-246.34 161 -245.68 161 -245 161 C-244.67 158.03 -244.34 155.06 -244 152 C-243.34 152 -242.68 152 -242 152 C-242 149.69 -242 147.38 -242 145 C-241.34 145 -240.68 145 -240 145 C-239.505 142.03 -239.505 142.03 -239 139 C-238.34 139 -237.68 139 -237 139 C-237 137.02 -237 135.04 -237 133 C-236.34 132.67 -235.68 132.34 -235 132 C-234.34786708 129.97536745 -234.34786708 129.97536745 -234 128 C-233.34 128 -232.68 128 -232 128 C-232 126.35 -232 124.7 -232 123 C-231.34 123 -230.68 123 -230 123 C-230 122.34 -230 121.68 -230 121 C-229.34 121 -228.68 121 -228 121 C-227.67 118.36 -227.34 115.72 -227 113 C-226.34 113 -225.68 113 -225 113 C-225 112.34 -225 111.68 -225 111 C-224.34 110.67 -223.68 110.34 -223 110 C-222.34786708 107.97536745 -222.34786708 107.97536745 -222 106 C-221.34 106 -220.68 106 -220 106 C-220 105.01 -220 104.02 -220 103 C-219.34 103 -218.68 103 -218 103 C-218 102.34 -218 101.68 -218 101 C-217.34 101 -216.68 101 -216 101 C-215.67 99.35 -215.34 97.7 -215 96 C-214.34 96 -213.68 96 -213 96 C-213 95.34 -213 94.68 -213 94 C-212.34 94 -211.68 94 -211 94 C-210.67 92.35 -210.34 90.7 -210 89 C-209.34 89 -208.68 89 -208 89 C-208 88.34 -208 87.68 -208 87 C-207.34 87 -206.68 87 -206 87 C-206 86.01 -206 85.02 -206 84 C-205.34 84 -204.68 84 -204 84 C-203.505 82.515 -203.505 82.515 -203 81 C-202.34 81 -201.68 81 -201 81 C-201 80.34 -201 79.68 -201 79 C-200.34 79 -199.68 79 -199 79 C-199 77.68 -199 76.36 -199 75 C-198.01 75 -197.02 75 -196 75 C-196 74.01 -196 73.02 -196 72 C-195.34 72 -194.68 72 -194 72 C-194 71.34 -194 70.68 -194 70 C-193.01 70 -192.02 70 -191 70 C-191 69.01 -191 68.02 -191 67 C-190.34 67 -189.68 67 -189 67 C-189 66.34 -189 65.68 -189 65 C-188.01 65 -187.02 65 -186 65 C-186 64.01 -186 63.02 -186 62 C-185.34 62 -184.68 62 -184 62 C-184 61.34 -184 60.68 -184 60 C-183.01 60 -182.02 60 -181 60 C-181 59.34 -181 58.68 -181 58 C-179.68 57.67 -178.36 57.34 -177 57 C-177 56.34 -177 55.68 -177 55 C-176.34 55 -175.68 55 -175 55 C-174.67 54.01 -174.34 53.02 -174 52 C-173.34 52 -172.68 52 -172 52 C-172 51.34 -172 50.68 -172 50 C-171.01 50 -170.02 50 -169 50 C-169 49.34 -169 48.68 -169 48 C-168.34 48 -167.68 48 -167 48 C-167 47.34 -167 46.68 -167 46 C-165.35 45.67 -163.7 45.34 -162 45 C-162 44.34 -162 43.68 -162 43 C-161.34 43 -160.68 43 -160 43 C-160 42.34 -160 41.68 -160 41 C-158.35 40.67 -156.7 40.34 -155 40 C-155 39.34 -155 38.68 -155 38 C-154.34 38 -153.68 38 -153 38 C-153 37.34 -153 36.68 -153 36 C-152.01 36 -151.02 36 -150 36 C-150 35.34 -150 34.68 -150 34 C-149.360625 33.87625 -148.72125 33.7525 -148.0625 33.625 C-147.381875 33.41875 -146.70125 33.2125 -146 33 C-145.505 32.01 -145.505 32.01 -145 31 C-143.68 31 -142.36 31 -141 31 C-141 30.34 -141 29.68 -141 29 C-139.02 28.67 -137.04 28.34 -135 28 C-135 27.34 -135 26.68 -135 26 C-134.34 26 -133.68 26 -133 26 C-133 25.34 -133 24.68 -133 24 C-131.35 24 -129.7 24 -128 24 C-128 23.34 -128 22.68 -128 22 C-127.360625 21.87625 -126.72125 21.7525 -126.0625 21.625 C-125.381875 21.41875 -124.70125 21.2125 -124 21 C-123.67 20.34 -123.34 19.68 -123 19 C-120.69 19 -118.38 19 -116 19 C-116 18.34 -116 17.68 -116 17 C-114.35 16.67 -112.7 16.34 -111 16 C-111 15.34 -111 14.68 -111 14 C-108.69 14 -106.38 14 -104 14 C-104 13.34 -104 12.68 -104 12 C-99.545 11.505 -99.545 11.505 -95 11 C-95 10.34 -95 9.68 -95 9 C-92.36 9 -89.72 9 -87 9 C-87 8.34 -87 7.68 -87 7 C-85.35 7 -83.7 7 -82 7 C-82 6.34 -82 5.68 -82 5 C-77.64667264 4.15976812 -73.55557481 3.89229005 -69.125 3.9375 C-67.97257813 3.94652344 -66.82015625 3.95554687 -65.6328125 3.96484375 C-64.76398438 3.97644531 -63.89515625 3.98804688 -63 4 C-63 3.34 -63 2.68 -63 2 C-59.7 2 -56.4 2 -53 2 C-53 1.34 -53 0.68 -53 0 C-35.2578645 -1.27216336 -17.7421355 -1.27216336 0 0 Z " fill="#FFFFFF" transform="translate(283,27)"/>
<path d="M0 0 C6.93 0 13.86 0 21 0 C21 0.66 21 1.32 21 2 C22.98 2 24.96 2 27 2 C27 2.66 27 3.32 27 4 C28.65 4 30.3 4 32 4 C32 4.99 32 5.98 32 7 C31.01 7 30.02 7 29 7 C29 7.66 29 8.32 29 9 C28.01 9 27.02 9 26 9 C26 9.66 26 10.32 26 11 C24.35 11 22.7 11 21 11 C21 11.99 21 12.98 21 14 C20.34 14 19.68 14 19 14 C19 14.66 19 15.32 19 16 C17.68 16 16.36 16 15 16 C15 17.65 15 19.3 15 21 C14.01 21 13.02 21 12 21 C12 22.65 12 24.3 12 26 C11.34 26 10.68 26 10 26 C10 32.27 10 38.54 10 45 C10.66 45 11.32 45 12 45 C12 45.66 12 46.32 12 47 C12.66 47 13.32 47 14 47 C14.495 49.475 14.495 49.475 15 52 C16.32 52.33 17.64 52.66 19 53 C19 53.66 19 54.32 19 55 C19.66 55 20.32 55 21 55 C21.33 55.66 21.66 56.32 22 57 C24.02463255 57.65213292 24.02463255 57.65213292 26 58 C26.33 59.32 26.66 60.64 27 62 C33.93 62 40.86 62 48 62 C48 61.34 48 60.68 48 60 C48.99 60 49.98 60 51 60 C51 59.34 51 58.68 51 58 C53.475 57.505 53.475 57.505 56 57 C56 56.34 56 55.68 56 55 C56.66 55 57.32 55 58 55 C58 54.01 58 53.02 58 52 C58.99 52 59.98 52 61 52 C61 50.35 61 48.7 61 47 C61.66 47 62.32 47 63 47 C63 46.34 63 45.68 63 45 C63.66 45 64.32 45 65 45 C65 43.68 65 42.36 65 41 C65.66 41 66.32 41 67 41 C67 36.71 67 32.42 67 28 C66.34 28 65.68 28 65 28 C65 26.35 65 24.7 65 23 C65.99 23.33 66.98 23.66 68 24 C68 24.66 68 25.32 68 26 C69.32 26 70.64 26 72 26 C72.33 27.65 72.66 29.3 73 31 C74.32 31 75.64 31 77 31 C77 32.65 77 34.3 77 36 C77.99 36 78.98 36 80 36 C80 37.32 80 38.64 80 40 C80.66 40 81.32 40 82 40 C82 40.99 82 41.98 82 43 C82.66 43 83.32 43 84 43 C84.12375 43.639375 84.2475 44.27875 84.375 44.9375 C84.58125 45.618125 84.7875 46.29875 85 47 C85.66 47.33 86.32 47.66 87 48 C87 50.31 87 52.62 87 55 C87.66 55 88.32 55 89 55 C89.33 57.31 89.66 59.62 90 62 C90.66 62 91.32 62 92 62 C92 66.62 92 71.24 92 76 C92.66 76 93.32 76 94 76 C94 82.6 94 89.2 94 96 C93.34 96 92.68 96 92 96 C92 100.62 92 105.24 92 110 C91.34 110 90.68 110 90 110 C89.67 112.64 89.34 115.28 89 118 C88.34 118 87.68 118 87 118 C87 119.65 87 121.3 87 123 C86.34 123 85.68 123 85 123 C84.67 124.65 84.34 126.3 84 128 C83.34 128 82.68 128 82 128 C82 129.32 82 130.64 82 132 C81.34 132 80.68 132 80 132 C79.67 132.99 79.34 133.98 79 135 C78.34 135 77.68 135 77 135 C77 136.32 77 137.64 77 139 C75.68 139.33 74.36 139.66 73 140 C72.67 141.98 72.34 143.96 72 146 C70.35 146.33 68.7 146.66 67 147 C67 147.66 67 148.32 67 149 C66.34 149 65.68 149 65 149 C65 149.66 65 150.32 65 151 C63.68 151.33 62.36 151.66 61 152 C61 152.66 61 153.32 61 154 C60.01 154 59.02 154 58 154 C58 154.66 58 155.32 58 156 C56.75 157.625 56.75 157.625 55 159 C53.68 159 52.36 159 51 159 C51 159.66 51 160.32 51 161 C50.01 161 49.02 161 48 161 C48 161.66 48 162.32 48 163 C45.04335481 164.4783226 42.25770263 164.06032783 39 164 C39 164.66 39 165.32 39 166 C37.35 166 35.7 166 34 166 C34 166.66 34 167.32 34 168 C31.29863088 168.90045637 29.74619225 169.12627451 26.97509766 169.12939453 C26.17061188 169.13254669 25.3661261 169.13569885 24.53726196 169.13894653 C23.67160614 169.1369223 22.80595032 169.13489807 21.9140625 169.1328125 C20.57316055 169.13424759 20.57316055 169.13424759 19.20516968 169.13571167 C17.3138624 169.13639218 15.42255279 169.13454686 13.53125 169.13037109 C10.64317539 169.12503359 7.75525719 169.13031396 4.8671875 169.13671875 C3.02864549 169.1360577 1.19010358 169.13477598 -0.6484375 169.1328125 C-1.51004486 169.13483673 -2.37165222 169.13686096 -3.2593689 169.13894653 C-7.30461128 169.12321959 -11.05316382 169.01311854 -15 168 C-15 167.34 -15 166.68 -15 166 C-16.65 166 -18.3 166 -20 166 C-20 165.34 -20 164.68 -20 164 C-22.97 163.67 -25.94 163.34 -29 163 C-29 162.34 -29 161.68 -29 161 C-29.66 161 -30.32 161 -31 161 C-31 160.34 -31 159.68 -31 159 C-32.65 159 -34.3 159 -36 159 C-36 158.34 -36 157.68 -36 157 C-36.99 156.67 -37.98 156.34 -39 156 C-39 155.34 -39 154.68 -39 154 C-40.65 154 -42.3 154 -44 154 C-44 154.66 -44 155.32 -44 156 C-44.66 156 -45.32 156 -46 156 C-46 156.99 -46 157.98 -46 159 C-47.65 159 -49.3 159 -51 159 C-51 160.32 -51 161.64 -51 163 C-52.65 163.33 -54.3 163.66 -56 164 C-56 164.66 -56 165.32 -56 166 C-56.66 166 -57.32 166 -58 166 C-58 166.66 -58 167.32 -58 168 C-59.65 168.33 -61.3 168.66 -63 169 C-63 169.66 -63 170.32 -63 171 C-63.66 171 -64.32 171 -65 171 C-65 171.66 -65 172.32 -65 173 C-65.66 173 -66.32 173 -67 173 C-67 173.66 -67 174.32 -67 175 C-68.65 175.33 -70.3 175.66 -72 176 C-72.33 177.32 -72.66 178.64 -73 180 C-74.32 180 -75.64 180 -77 180 C-77 180.99 -77 181.98 -77 183 C-77.99 183 -78.98 183 -80 183 C-80 183.66 -80 184.32 -80 185 C-81.65 185.33 -83.3 185.66 -85 186 C-85 186.66 -85 187.32 -85 188 C-85.66 188 -86.32 188 -87 188 C-87 188.66 -87 189.32 -87 190 C-87.66 190 -88.32 190 -89 190 C-89 190.66 -89 191.32 -89 192 C-89.99 192 -90.98 192 -92 192 C-92 192.99 -92 193.98 -92 195 C-93.32 195 -94.64 195 -96 195 C-96.33 195.99 -96.66 196.98 -97 198 C-97.66 198 -98.32 198 -99 198 C-99 198.66 -99 199.32 -99 200 C-99.99 200 -100.98 200 -102 200 C-102 200.66 -102 201.32 -102 202 C-102.66 202 -103.32 202 -104 202 C-104 202.66 -104 203.32 -104 204 C-106.31 204.33 -108.62 204.66 -111 205 C-110.34 204.67 -109.68 204.34 -109 204 C-109 202.68 -109 201.36 -109 200 C-108.34 200 -107.68 200 -107 200 C-106.67 198.35 -106.34 196.7 -106 195 C-104.68 195 -103.36 195 -102 195 C-101.67 193.35 -101.34 191.7 -101 190 C-100.34 190 -99.68 190 -99 190 C-99 189.34 -99 188.68 -99 188 C-98.34 188 -97.68 188 -97 188 C-96.67 186.35 -96.34 184.7 -96 183 C-95.34 183 -94.68 183 -94 183 C-94 182.34 -94 181.68 -94 181 C-93.34 181 -92.68 181 -92 181 C-92 180.01 -92 179.02 -92 178 C-91.34 178 -90.68 178 -90 178 C-89.67 177.01 -89.34 176.02 -89 175 C-88.34 175 -87.68 175 -87 175 C-87 173.68 -87 172.36 -87 171 C-86.34 171 -85.68 171 -85 171 C-85 170.34 -85 169.68 -85 169 C-84.01 169 -83.02 169 -82 169 C-82 167.35 -82 165.7 -82 164 C-80.68 163.67 -79.36 163.34 -78 163 C-77.67 161.68 -77.34 160.36 -77 159 C-76.34 159 -75.68 159 -75 159 C-75 158.34 -75 157.68 -75 157 C-74.34 157 -73.68 157 -73 157 C-72.67 155.35 -72.34 153.7 -72 152 C-70.68 151.67 -69.36 151.34 -68 151 C-67.67 149.35 -67.34 147.7 -67 146 C-66.34 146 -65.68 146 -65 146 C-65 145.34 -65 144.68 -65 144 C-64.34 144 -63.68 144 -63 144 C-63 143.34 -63 142.68 -63 142 C-62.34 142 -61.68 142 -61 142 C-61 138.04 -61 134.08 -61 130 C-61.66 130 -62.32 130 -63 130 C-63 129.34 -63 128.68 -63 128 C-64.32 127.67 -65.64 127.34 -67 127 C-67.495 122.545 -67.495 122.545 -68 118 C-68.66 118 -69.32 118 -70 118 C-70 117.01 -70 116.02 -70 115 C-70.66 115 -71.32 115 -72 115 C-72.33 109.39 -72.66 103.78 -73 98 C-73.66 98 -74.32 98 -75 98 C-75 89.42 -75 80.84 -75 72 C-74.34 72 -73.68 72 -73 72 C-72.67 67.05 -72.34 62.1 -72 57 C-71.34 57 -70.68 57 -70 57 C-70 55.68 -70 54.36 -70 53 C-69.34 52.67 -68.68 52.34 -68 52 C-67.34444881 49.47266765 -67.34444881 49.47266765 -67 47 C-66.34 47 -65.68 47 -65 47 C-65 45.68 -65 44.36 -65 43 C-64.34 43 -63.68 43 -63 43 C-63 42.34 -63 41.68 -63 41 C-62.34 41 -61.68 41 -61 41 C-61 39.35 -61 37.7 -61 36 C-60.01 36 -59.02 36 -58 36 C-58 35.01 -58 34.02 -58 33 C-57.34 33 -56.68 33 -56 33 C-55.67 31.68 -55.34 30.36 -55 29 C-53.68 28.67 -52.36 28.34 -51 28 C-51 27.34 -51 26.68 -51 26 C-50.34 26 -49.68 26 -49 26 C-48.505 24.515 -48.505 24.515 -48 23 C-47.34 23 -46.68 23 -46 23 C-46 22.34 -46 21.68 -46 21 C-45.34 21 -44.68 21 -44 21 C-43.505 19.515 -43.505 19.515 -43 18 C-42.34 18 -41.68 18 -41 18 C-41 17.34 -41 16.68 -41 16 C-39.35 16 -37.7 16 -36 16 C-36 14.68 -36 13.36 -36 12 C-31.545 11.505 -31.545 11.505 -27 11 C-26.67 9.68 -26.34 8.36 -26 7 C-22.32589215 5.82428549 -18.83070817 5.92633254 -15 6 C-15 5.34 -15 4.68 -15 4 C-12.69 4 -10.38 4 -8 4 C-8 3.34 -8 2.68 -8 2 C-5.36 2 -2.72 2 0 2 C0 1.34 0 0.68 0 0 Z " fill="#FFFFFF" transform="translate(343,61)"/>
</svg>
