<svg xmlns="http://www.w3.org/2000/svg" viewBox="0 0 512 512" width="512" height="512"><g fill="#FFFFFF" fill-opacity="1.00" stroke="None"><path d="M 271 29 C 261.33 29 230.672 29.876 218.64 32.02 C 184.626 38.081 169.78 45.29 155.99 50.99 C 142.2 56.69 130.03 65.303 119 73 C 110.575 78.879 80.83 108.901 72.566 119.434 C 55.943 140.621 38.323 182.478 34.697 196.651 C 30.787 211.935 29.129 215.135 28.004 241.502 C 27.228 259.692 31.495 300.307 36 319 C 43.827 351.478 61.496 379.216 72 393 C 92.33 419.678 105.98 431.81 126 445 C 151.037 461.495 201.541 484.871 245.307 484.264 C 285.679 483.704 323.69 477.964 338 473 C 355.811 466.822 361.467 463.666 381 451 C 395.528 441.58 411.18 426.342 425 413 C 429.294 408.855 447.46 386.458 451 381 C 466.353 357.331 472.975 336.982 476 326 C 476.133 325.517 483.594 290.885 485 275 C 486.406 259.115 486.296 246.173 483.154 218.829 C 482.964 217.177 480.13 202.71 478 203 C 476.89 207.27 476.918 222.15 476 230.239 C 473.473 252.508 463.519 275.108 459.29 282.29 C 454.851 289.83 449.346 303.434 439.786 316.453 C 435.399 322.427 425.915 331.976 418 338 C 408.435 345.28 395.947 358.198 350 374 C 341.87 376.796 330.299 380.691 317 381 C 315.34 381.039 295.777 382.512 288 381.239 C 277.637 379.543 264.865 376.343 256 374 C 250.664 372.59 226.58 362.66 220.3 359.7 C 214.02 356.75 206.794 352.199 201 348 C 185.922 337.072 174.838 327.662 159.03 302.97 C 149.935 288.763 140.423 269.731 138 261 C 131.761 238.519 127.566 227.821 128 209 C 128.434 190.179 129.889 183.616 131 179 C 135.293 161.163 140.552 145.364 144.9 133.9 C 149.336 122.206 156.57 111.9 164 102 C 165.5 100.01 172.36 91.81 174 90 C 177.91 85.68 200.731 63.688 205.438 61.285 C 212.533 57.663 223.056 49.597 237 46 C 240.738 45.036 257.431 40.088 275 36 C 284.161 33.868 290.101 33.325 294 32 C 295.829 31.379 296.846 30.125 295.408 29.063 C 293.612 27.737 274.294 29 271 29 Z"></path></g><g fill="#FFFFFF" fill-opacity="1.00" stroke="None"><path d="M 312 73 C 307.393 75.273 301.29 81.14 300 82 C 296.02 85.66 290.907 92.004 287 96 C 274.401 108.887 270.322 127.845 270 138 C 269.642 149.298 270.291 170.825 275.48 180.92 C 277.149 184.167 280.103 189.705 282.232 191.95 C 285.695 195.602 286.388 199.228 283.634 202.733 C 281.872 204.976 273.635 214.71 267.404 223.055 C 263.258 228.608 242.999 254.294 238.121 261.698 C 251.606 252.217 281.197 228.361 299.656 215.449 C 301.457 214.357 302.468 214.238 304 215 C 305.275 215.634 318.447 222.345 321.557 223.885 C 328.467 227.305 334.075 229.325 343 230 C 352.703 230.734 360.787 230.671 365 230 C 369.085 229.35 373.167 228.099 377 227 C 388.877 223.594 395.006 217.963 401 215 C 407.264 211.904 417.43 201.618 421.475 197.278 C 427.12 191.221 429.692 181.566 432.688 173.902 C 435.578 166.511 436.611 158.331 437 155 C 437.58 150.031 437.119 145.316 437 140 C 436.914 136.147 436.163 134.765 435.983 130.295 C 435.243 127.195 433.114 110.991 424.301 101.825 C 420.432 97.8 415.092 92.718 410.444 89.583 C 410.519 93.848 410.714 96.1 410.556 99.609 C 410.462 101.709 410.16 103.45 409.53 106 C 408.29 111.01 406.494 114.108 402.513 117.583 C 400.413 119.416 397.018 123.251 389 125 C 387.063 125.423 383.033 126.774 375 125 C 368.04 123.463 354.4 113.91 353 106 C 352.78 104.76 352.431 101.749 352 99 C 351.76 97.465 351.815 96.359 352 92 C 352.073 90.275 355.976 82.08 357.743 78.936 C 359.166 76.404 363.044 71.67 365.13 70.437 C 368.775 68.282 371.592 67.085 373.826 65.128 C 371.826 65.068 341.98 64.85 340 65 C 329.83 65.76 320.899 68.609 312 73 Z"></path></g></svg>