<?xml version="1.0" encoding="utf-8"?>
<svg viewBox="99.752 298.476 259.25 292.996" xmlns="http://www.w3.org/2000/svg" xmlns:bx="https://boxy-svg.com" width="259.25px" height="292.996px"><defs><filter id="drop-shadow-filter-0" bx:preset="drop-shadow 1 0 -2 3 1 rgba(0,0,0,0.3)" color-interpolation-filters="sRGB" x="-50%" y="-50%" width="200%" height="200%"><feGaussianBlur in="SourceAlpha" stdDeviation="3"/><feOffset dx="0" dy="-2"/><feComponentTransfer result="offsetblur"><feFuncA id="spread-ctrl" type="linear" slope="2"/></feComponentTransfer><feFlood flood-color="rgba(0,0,0,0.3)"/><feComposite in2="offsetblur" operator="in"/><feMerge><feMergeNode/><feMergeNode in="SourceGraphic"/></feMerge></filter><filter id="drop-shadow-filter-1" bx:preset="drop-shadow 1 0 2 3 1 rgba(0,0,0,0.3)" color-interpolation-filters="sRGB" x="-50%" y="-50%" width="200%" height="200%"><feGaussianBlur in="SourceAlpha" stdDeviation="3"/><feOffset dx="0" dy="2"/><feComponentTransfer result="offsetblur"><feFuncA id="spread-ctrl" type="linear" slope="2"/></feComponentTransfer><feFlood flood-color="rgba(0,0,0,0.3)"/><feComposite in2="offsetblur" operator="in"/><feMerge><feMergeNode/><feMergeNode in="SourceGraphic"/></feMerge></filter></defs><path style="fill: rgb(208, 211, 216); fill-opacity: 0.82; stroke: rgb(208, 211, 216); stroke-opacity: 0.82; filter: url(&quot;#drop-shadow-filter-1&quot;);" d="M 218.646 545.315 C 218.785 545.334 218.752 547.405 216.547 550.448 C 212.926 552.388 215.267 580.821 206.379 577.607 C 203.679 576.34 202.311 575.817 197.659 572.325 C 196.561 582.424 140.158 572.555 143.495 541.855 C 125.158 531.199 123.584 527.399 118.694 511.088 C 138.824 497.652 139.483 497.196 159.12 497.057 C 153.957 503.94 154.117 507.45 156.144 515.988 C 157.416 506.455 159.432 502.309 163.323 501.101 C 167.043 502.326 169.398 504.046 169.273 503.983 C 172.072 511.916 173.113 521.867 166.033 538.386 C 175.567 536.055 180.966 512.254 176.259 501.706 L 172.272 496.051 C 183.678 494.792 209.143 493.985 216.001 502.989 C 218.842 513.818 218.776 517.921 216.073 525.042 C 214.242 529.864 211.391 534.95 207.725 536.881 C 195.819 543.156 174.294 546.022 173.084 540.777 C 170.474 550.571 217.676 548.949 218.646 545.315 Z"/><path style="fill: rgb(208, 211, 216); fill-opacity: 0.82; stroke: rgb(208, 211, 216); stroke-opacity: 0.82; filter: url(&quot;#drop-shadow-filter-1&quot;);" d="M 117.397 502.912 C 129.715 489.582 142.874 487.81 158.396 488.738 C 162.367 487.001 159.76 478.475 153.336 477.349 C 131.882 478.799 122.617 466.899 122.965 454.824 C 129.743 466.759 146.271 471.584 158.65 469.25 C 159.668 468.615 159.177 467.156 156.309 466.34 C 149.626 464.35 142.338 457.395 143.466 451.534 C 151.069 459.864 155.926 458.126 160.965 461.103 C 163.241 462.255 163.411 462.283 165.323 463.736 C 167.555 463.169 168.04 462.784 169.161 462.039 C 173.202 459.354 176.24 457.548 179.307 458.167 C 188.73 460.07 196.477 470.603 196.477 470.603 C 173.498 462.65 171.102 467.614 168.891 476.678 C 167.694 484.729 168.702 488.294 168.702 488.294 C 174.168 487.711 208.63 485.289 215.341 491.268 C 218.776 495.847 221.753 464.638 219.137 461.151 C 216.911 456.32 200.21 443.907 195.602 441.917 C 192.626 440.309 165.032 427.919 163.687 429.167 C 161.597 430.495 160.433 432.878 157.385 433.316 C 157.446 432.048 156.97 427.397 156.373 427.495 C 133.887 423.093 122.82 413.256 112.999 397.062 C 106.331 413.548 98.434 447.665 111.577 449.767 C 96.503 452.266 101.819 491.561 117.397 502.912 Z"/><path style="fill: rgb(208, 211, 216); fill-opacity: 0.82; stroke: rgb(208, 211, 216); stroke-opacity: 0.82; filter: url(&quot;#drop-shadow-filter-1&quot;);" d="M 117.639 372.582 C 111.721 400.739 147.07 418.03 159.681 418.651 C 161.241 404.729 156.393 388.924 142.86 373.799 C 144.443 372.112 167.986 384.002 168.23 393.082 L 168.525 387.647 C 166.761 375.78 168.851 373.364 175.164 366.427 C 183.065 357.748 189.791 357.423 184.546 347.713 C 182.131 341.98 183.223 337.751 186.02 334.131 C 187.149 332.232 187.743 331.499 186.836 324.341 C 194.231 334.211 183.247 337.227 188.094 347.486 C 189.096 349.501 193.582 355.54 188.094 361.621 C 180.901 367.803 174.311 375.259 176.961 380.76 C 183.003 392.129 171.187 395.623 170.21 405.276 C 169.136 415.888 173.631 424.052 183.721 429.42 C 188.964 431.896 219.759 444.222 220.039 450.441 C 226.998 449.573 227.176 412.23 203.247 415.208 C 200.384 415.244 199.576 418.104 199.576 423.21 C 195.495 416.992 192.842 409.517 195.598 403.968 C 195.598 403.968 181.453 385.508 197.748 377.874 C 196.588 373.812 190.506 372.918 190.53 372.409 C 190.554 371.9 199.232 369.914 199.232 369.914 L 209.924 360.018 C 209.924 360.018 211.563 359.231 211.769 359.798 C 212.122 360.767 204.311 373.051 204.311 373.051 C 205.274 377.033 205.675 381.108 202.791 383.683 C 200.476 386.997 196.006 388.157 201.051 396.321 C 203.174 399.757 203.297 398.397 204.103 405.242 C 205.494 408.068 218.129 408.692 219.759 407.552 C 221.017 407.014 222.104 395.736 219.234 390.805 L 216.955 387.543 L 219.54 385.381 C 219.54 385.381 220.153 375.634 221.107 372.322 C 222.472 369.121 222.736 368.497 222.736 368.497 C 224.923 363.672 224.503 350.472 222.387 340.312 C 220.307 331.249 221.386 336.048 220.009 324.138 C 221.097 316.391 219.405 309.899 210.492 312.788 C 192.753 313.505 170.187 318.407 169.781 330.882 C 160.44 331.364 148.417 336.022 147.86 347.925 C 142.296 347.077 134.08 345.589 130.875 357.867 C 124.172 360.473 120.365 362.235 117.639 372.582 Z"/><path style="transform-origin: 290.062px 536.574px; fill: rgb(208, 211, 216); fill-opacity: 0.82; stroke: rgb(208, 211, 216); stroke-opacity: 0.82; filter: url(&quot;#drop-shadow-filter-0&quot;);" d="M 340.015 527.833 C 340.154 527.814 340.121 525.743 337.916 522.7 C 334.295 520.76 336.636 492.327 327.748 495.541 C 325.048 496.808 323.68 497.331 319.028 500.823 C 317.93 490.724 261.527 500.593 264.864 531.293 C 246.527 541.949 244.953 545.749 240.063 562.06 C 260.193 575.496 260.852 575.952 280.489 576.091 C 275.326 569.208 275.486 565.698 277.513 557.16 C 278.785 566.693 280.801 570.839 284.692 572.047 C 288.412 570.822 290.767 569.102 290.642 569.165 C 293.441 561.232 294.482 551.281 287.402 534.762 C 296.936 537.093 302.335 560.894 297.628 571.442 L 293.641 577.097 C 305.047 578.356 330.512 579.163 337.37 570.159 C 340.211 559.33 340.145 555.227 337.442 548.106 C 335.611 543.284 332.76 538.198 329.094 536.267 C 317.188 529.992 295.663 527.126 294.453 532.371 C 291.843 522.577 339.045 524.199 340.015 527.833 Z" transform="matrix(-1, 0, 0, -1, -0.000003, 0.000069)"/><path style="transform-origin: 297.378px 449.987px; fill: rgb(208, 211, 216); fill-opacity: 0.82; stroke: rgb(208, 211, 216); stroke-opacity: 0.82; filter: url(&quot;#drop-shadow-filter-0&quot;);" d="M 253.398 397.062 C 265.716 410.392 278.875 412.164 294.397 411.236 C 298.368 412.973 295.761 421.499 289.337 422.625 C 267.883 421.175 258.618 433.075 258.966 445.15 C 265.744 433.215 282.272 428.39 294.651 430.724 C 295.669 431.359 295.178 432.818 292.31 433.634 C 285.627 435.624 278.339 442.579 279.467 448.44 C 287.07 440.11 291.927 441.848 296.966 438.871 C 299.242 437.719 299.412 437.691 301.324 436.238 C 303.556 436.805 304.041 437.19 305.162 437.935 C 309.203 440.62 312.241 442.426 315.308 441.807 C 324.731 439.904 332.478 429.371 332.478 429.371 C 309.499 437.324 307.103 432.36 304.892 423.296 C 303.695 415.245 304.703 411.68 304.703 411.68 C 310.169 412.263 344.631 414.685 351.342 408.706 C 354.777 404.127 357.754 435.336 355.138 438.823 C 352.912 443.654 336.211 456.067 331.603 458.057 C 328.627 459.665 301.033 472.055 299.688 470.807 C 297.598 469.479 296.434 467.096 293.386 466.658 C 293.447 467.926 292.971 472.577 292.374 472.479 C 269.888 476.881 258.821 486.718 249 502.912 C 242.332 486.426 234.435 452.309 247.578 450.207 C 232.504 447.708 237.82 408.413 253.398 397.062 Z" transform="matrix(-1, 0, 0, -1, 0.000028, -0.00001)"/><path style="transform-origin: 288.172px 381.264px; fill: rgb(208, 211, 216); fill-opacity: 0.82; stroke: rgb(208, 211, 216); stroke-opacity: 0.82; filter: url(&quot;#drop-shadow-filter-0&quot;);" d="M 235.229 389.946 C 229.311 361.789 264.66 344.498 277.271 343.877 C 278.831 357.799 273.983 373.604 260.45 388.729 C 262.033 390.416 285.576 378.526 285.82 369.446 L 286.115 374.881 C 284.351 386.748 286.441 389.164 292.754 396.101 C 300.655 404.78 307.381 405.105 302.136 414.815 C 299.721 420.548 300.813 424.777 303.61 428.397 C 304.739 430.296 305.333 431.029 304.426 438.187 C 311.821 428.317 300.837 425.301 305.684 415.042 C 306.686 413.027 311.172 406.988 305.684 400.907 C 298.491 394.725 291.901 387.269 294.551 381.768 C 300.593 370.399 288.777 366.905 287.8 357.252 C 286.726 346.64 291.221 338.476 301.311 333.108 C 306.554 330.632 337.349 318.306 337.629 312.087 C 344.588 312.955 344.766 350.298 320.837 347.32 C 317.974 347.284 317.166 344.424 317.166 339.318 C 313.085 345.536 310.432 353.011 313.188 358.56 C 313.188 358.56 299.043 377.02 315.338 384.654 C 314.178 388.716 308.096 389.61 308.12 390.119 C 308.144 390.628 316.822 392.614 316.822 392.614 L 327.514 402.51 C 327.514 402.51 329.153 403.297 329.359 402.73 C 329.712 401.761 321.901 389.477 321.901 389.477 C 322.864 385.495 323.265 381.42 320.381 378.845 C 318.066 375.531 313.596 374.371 318.641 366.207 C 320.764 362.771 320.887 364.131 321.693 357.286 C 323.084 354.46 335.719 353.836 337.349 354.976 C 338.607 355.514 339.694 366.792 336.824 371.723 L 334.545 374.985 L 337.13 377.147 C 337.13 377.147 337.743 386.894 338.697 390.206 C 340.062 393.407 340.326 394.031 340.326 394.031 C 342.513 398.856 342.093 412.056 339.977 422.216 C 337.897 431.279 338.976 426.48 337.599 438.39 C 338.687 446.137 336.995 452.629 328.082 449.74 C 310.343 449.023 287.777 444.121 287.371 431.646 C 278.03 431.164 266.007 426.506 265.45 414.603 C 259.886 415.451 251.67 416.939 248.465 404.661 C 241.762 402.055 237.955 400.293 235.229 389.946 Z" transform="matrix(-1, 0, 0, -1, -0.000011, -0.000015)"/></svg>