<?xml version="1.0" encoding="utf-8"?>
<svg viewBox="99.752 298.476 259.25 292.996" xmlns="http://www.w3.org/2000/svg" xmlns:bx="https://boxy-svg.com" width="259.25px" height="292.996px"><defs><filter id="drop-shadow-filter-0" bx:preset="drop-shadow 1 0 2 3 1 #0000004d" color-interpolation-filters="sRGB" x="-50%" y="-50%" width="200%" height="200%"><feGaussianBlur in="SourceAlpha" stdDeviation="3"/><feOffset dx="0" dy="2"/><feComponentTransfer result="offsetblur"><feFuncA id="spread-ctrl" type="linear" slope="2"/></feComponentTransfer><feFlood flood-color="#0000004d"/><feComposite in2="offsetblur" operator="in"/><feMerge><feMergeNode/><feMergeNode in="SourceGraphic"/></feMerge></filter></defs><path style="filter: url(&quot;#drop-shadow-filter-0&quot;); fill-opacity: 0.82; stroke-opacity: 0.82; stroke: rgb(208, 211, 216); fill: rgb(208, 211, 216);" d="M 238.541 584.254 C 222.173 584.649 192.024 579.99 178.638 569.544 C 161.154 555.897 151.691 536.066 146.836 527.412 C 145.026 524.186 143.41 523.735 144.943 534.136 C 135.864 525.752 133.514 520.045 125.87 490.614 C 123.62 481.96 120.363 486.56 118.935 503.264 C 109.535 484.18 109.554 475.568 107.568 438.689 C 107.404 435.645 105.506 427.877 103.331 447.324 C 100.896 349.431 192.764 315.968 238.503 319.721 C 323.519 326.698 358.022 390.245 350.579 457.542 C 347.096 489.016 314.598 519.438 294.112 521.454 L 269.851 521.941 C 255.422 528.811 251.286 534.587 232.588 534.587 C 224.623 534.587 220.545 532.036 216.904 536.258 C 209.039 545.374 220.534 567.084 238.541 584.254 Z M 165.381 461.774 C 164.562 475.529 171.48 494.283 172.857 492.563 C 168.698 481.64 172.402 468.18 172.402 468.18 C 184.559 504.316 225.563 499.159 225.563 499.159 C 240.344 498.848 250.813 492.621 250.813 492.621 C 347.798 487.08 322.143 409.258 322.143 409.258 C 270.999 292.401 151.372 368.209 147.004 378.399 C 170.931 359.673 211.506 363.835 211.506 363.835 C 149.603 372.676 141.283 428.335 141.283 428.335 C 193.299 358.632 252.819 388.029 252.819 388.029 C 105.164 388.906 157.026 519.688 157.026 519.688 C 151.824 479.984 165.381 461.774 165.381 461.774 Z M 210.208 440.068 C 222.129 423.375 269.548 401.908 282.213 429.466 C 292.307 451.43 261.181 448.289 251.986 446.403 C 240.511 444.049 235.732 435.055 210.208 440.068 Z"/></svg>