<?xml version="1.0" encoding="utf-8"?>
<svg xmlns="http://www.w3.org/2000/svg" viewBox="0 0 297.5 68.5" xmlns:bx="https://boxy-svg.com" width="297.5px" height="68.5px"><defs><radialGradient gradientUnits="userSpaceOnUse" cx="250" cy="425.5" r="200" id="gradient-0" gradientTransform="matrix(1, 0, 0, 1.7, -101.25, -720.000002)" spreadMethod="pad"><stop offset="0" style="stop-color: rgb(84.706% 84.706% 84.706%)"/><stop offset="1" style="stop-color: rgb(167, 167, 167);"/></radialGradient><filter id="outline-filter-0" bx:preset="outline 1 1.5 #000" color-interpolation-filters="sRGB" x="-50%" y="-50%" width="200%" height="200%"><feMorphology in="SourceAlpha" result="dilated" operator="dilate" radius="1.5"/><feFlood flood-color="#000" result="flood"/><feComposite in="flood" in2="dilated" operator="in" result="outline"/><feMerge><feMergeNode in="outline"/><feMergeNode in="SourceGraphic"/></feMerge></filter><filter id="point-light-filter-0" bx:preset="point-light 1 0.5 0.6 0.5 1 0.54 1.13 0 #ffffff" primitiveUnits="objectBoundingBox" color-interpolation-filters="sRGB" x="-50%" y="-50%" width="200%" height="200%"><feSpecularLighting result="specular-lighting" lighting-color="#ffffff" specularConstant="0.54" specularExponent="1"><fePointLight x="0.5" y="0.6" z="0.5"/></feSpecularLighting><feDiffuseLighting result="diffuse-lighting" lighting-color="#ffffff" diffuseConstant="1.13"><fePointLight x="0.5" y="0.6" z="0.5"/></feDiffuseLighting><feMerge result="lighting"><feMergeNode in="diffuse-lighting"/><feMergeNode in="specular-lighting"/></feMerge><feComposite in="SourceGraphic" in2="lighting" operator="arithmetic" k1="1" k2="0" k3="0" k4="0"/></filter></defs><path style="fill: url(&quot;#gradient-0&quot;); stroke: rgb(255, 255, 255); stroke-width: 2.5px; filter: url(&quot;#outline-filter-0&quot;) url(&quot;#point-light-filter-0&quot;); paint-order: fill;" d="M 2.75 -245 L 2.75 0 L 148.75 65 L 294.75 0 L 294.75 -245 L 2.75 -245 Z"/><path style="fill: rgb(216, 216, 216); stroke-width: 2.5px; stroke: rgba(223, 223, 223, 0.09);" d="M 1.25 -234.2 L 296.25 -235"/><path style="fill: rgb(216, 216, 216); stroke-width: 2.5px; stroke: rgba(223, 223, 223, 0.09);" d="M 1.25 -224.2 L 296.25 -225"/><path style="fill: rgb(216, 216, 216); stroke-width: 2.5px; stroke: rgba(223, 223, 223, 0.09);" d="M 1.25 -214.2 L 296.25 -215"/><path style="fill: rgb(216, 216, 216); stroke-width: 2.5px; stroke: rgba(223, 223, 223, 0.09);" d="M 1.25 -204.2 L 296.25 -205"/><path style="fill: rgb(216, 216, 216); stroke-width: 2.5px; stroke: rgba(223, 223, 223, 0.09);" d="M 1.25 -194.2 L 296.25 -195"/><path style="fill: rgb(216, 216, 216); stroke-width: 2.5px; stroke: rgba(223, 223, 223, 0.09);" d="M 1.25 -184.2 L 296.25 -185"/><path style="fill: rgb(216, 216, 216); stroke-width: 2.5px; stroke: rgba(223, 223, 223, 0.09);" d="M 1.25 -174.2 L 296.25 -175"/><path style="fill: rgb(216, 216, 216); stroke-width: 2.5px; stroke: rgba(223, 223, 223, 0.09);" d="M 1.25 -164.2 L 296.25 -165"/><path style="fill: rgb(216, 216, 216); stroke-width: 2.5px; stroke: rgba(223, 223, 223, 0.09);" d="M 1.25 -154.2 L 296.25 -155"/><path style="fill: rgb(216, 216, 216); stroke-width: 2.5px; stroke: rgba(223, 223, 223, 0.09);" d="M 1.25 -144.2 L 296.25 -145"/><path style="fill: rgb(216, 216, 216); stroke-width: 2.5px; stroke: rgba(223, 223, 223, 0.09);" d="M 1.25 -134.2 L 296.25 -135"/><path style="fill: rgb(216, 216, 216); stroke-width: 2.5px; stroke: rgba(223, 223, 223, 0.09);" d="M 1.25 -124.2 L 296.25 -125"/><path style="fill: rgb(216, 216, 216); stroke-width: 2.5px; stroke: rgba(223, 223, 223, 0.09);" d="M 1.25 -114.2 L 296.25 -115"/><path style="fill: rgb(216, 216, 216); stroke-width: 2.5px; stroke: rgba(223, 223, 223, 0.09);" d="M 1.25 -104.2 L 296.25 -105"/><path style="fill: rgb(216, 216, 216); stroke-width: 2.5px; stroke: rgba(223, 223, 223, 0.09);" d="M 1.25 -94.2 L 296.25 -95"/><path style="fill: rgb(216, 216, 216); stroke-width: 2.5px; stroke: rgba(223, 223, 223, 0.09);" d="M 1.25 -84.2 L 296.25 -85"/><path style="fill: rgb(216, 216, 216); stroke-width: 2.5px; stroke: rgba(223, 223, 223, 0.09);" d="M 1.25 -74.2 L 296.25 -75"/><path style="fill: rgb(216, 216, 216); stroke-width: 2.5px; stroke: rgba(223, 223, 223, 0.09);" d="M 1.25 -64.2 L 296.25 -65"/><path style="fill: rgb(216, 216, 216); stroke-width: 2.5px; stroke: rgba(223, 223, 223, 0.09);" d="M 1.25 -54.2 L 296.25 -55"/><path style="fill: rgb(216, 216, 216); stroke-width: 2.5px; stroke: rgba(223, 223, 223, 0.09);" d="M 1.25 -44.2 L 296.25 -45"/><path style="fill: rgb(216, 216, 216); stroke-width: 2.5px; stroke: rgba(223, 223, 223, 0.09);" d="M 1.25 -34.2 L 296.25 -35"/><path style="fill: rgb(216, 216, 216); stroke-width: 2.5px; stroke: rgba(223, 223, 223, 0.09);" d="M 1.25 -24.2 L 296.25 -25"/><path style="fill: rgb(216, 216, 216); stroke-width: 2.5px; stroke: rgba(223, 223, 223, 0.09);" d="M 1.25 -14.2 L 296.25 -15"/><path style="fill: rgb(216, 216, 216); stroke-width: 2.5px; stroke: rgba(223, 223, 223, 0.09);" d="M 1.25 -4.2 L 296.25 -5"/><path style="fill: rgb(216, 216, 216); stroke-width: 2.5px; stroke: rgba(223, 223, 223, 0.09);" d="M 15.75 5.8 L 283.75 5"/><path style="fill: rgb(216, 216, 216); stroke-width: 2.5px; stroke: rgba(223, 223, 223, 0.09);" d="M 38.25 15.8 L 261.25 15"/><path style="fill: rgb(216, 216, 216); stroke-width: 2.5px; stroke: rgba(223, 223, 223, 0.09);" d="M 60.75 25.8 L 239.25 25"/><path style="fill: rgb(216, 216, 216); stroke-width: 2.5px; stroke: rgba(223, 223, 223, 0.09);" d="M 83.25 35.8 L 216.75 35"/><path style="fill: rgb(216, 216, 216); stroke-width: 2.5px; stroke: rgba(223, 223, 223, 0.09);" d="M 105.75 45.8 L 194.25 45"/><path style="fill: rgb(216, 216, 216); stroke-width: 2.5px; stroke: rgba(223, 223, 223, 0.09);" d="M 128.25 55.8 L 169.75 55"/></svg>