<?xml version="1.0" encoding="utf-8"?>
<svg xmlns="http://www.w3.org/2000/svg" viewBox="0 0 297.5 235" xmlns:bx="https://boxy-svg.com" width="297.5px" height="235px"><defs><radialGradient gradientUnits="userSpaceOnUse" cx="250" cy="425.5" r="200" id="gradient-0" gradientTransform="matrix(1, 0, 0, 1.7, -101.25, -485)" spreadMethod="pad"><stop offset="0" style="stop-color: rgb(84.706% 84.706% 84.706%)"/><stop offset="1" style="stop-color: rgb(167, 167, 167);"/></radialGradient><filter id="outline-filter-0" bx:preset="outline 1 1.5 #000" color-interpolation-filters="sRGB" x="-50%" y="-50%" width="200%" height="200%"><feMorphology in="SourceAlpha" result="dilated" operator="dilate" radius="1.5"/><feFlood flood-color="#000" result="flood"/><feComposite in="flood" in2="dilated" operator="in" result="outline"/><feMerge><feMergeNode in="outline"/><feMergeNode in="SourceGraphic"/></feMerge></filter><filter id="point-light-filter-0" bx:preset="point-light 1 0.5 0.6 0.5 1 0.54 1.13 0 #ffffff" primitiveUnits="objectBoundingBox" color-interpolation-filters="sRGB" x="-50%" y="-50%" width="200%" height="200%"><feSpecularLighting result="specular-lighting" lighting-color="#ffffff" specularConstant="0.54" specularExponent="1"><fePointLight x="0.5" y="0.6" z="0.5"/></feSpecularLighting><feDiffuseLighting result="diffuse-lighting" lighting-color="#ffffff" diffuseConstant="1.13"><fePointLight x="0.5" y="0.6" z="0.5"/></feDiffuseLighting><feMerge result="lighting"><feMergeNode in="diffuse-lighting"/><feMergeNode in="specular-lighting"/></feMerge><feComposite in="SourceGraphic" in2="lighting" operator="arithmetic" k1="1" k2="0" k3="0" k4="0"/></filter></defs><path style="fill: url(&quot;#gradient-0&quot;); stroke: rgb(255, 255, 255); stroke-width: 2.5px; filter: url(&quot;#outline-filter-0&quot;) url(&quot;#point-light-filter-0&quot;); paint-order: fill;" d="M 2.75 -10 L 2.75 235 L 148.75 300 L 294.75 235 L 294.75 -10 L 2.75 -10 Z"/><path style="fill: rgb(216, 216, 216); stroke-width: 2.5px; stroke: rgba(223, 223, 223, 0.09);" d="M 1.25 0.8 L 296.25 0"/><path style="fill: rgb(216, 216, 216); stroke-width: 2.5px; stroke: rgba(223, 223, 223, 0.09);" d="M 1.25 10.8 L 296.25 10"/><path style="fill: rgb(216, 216, 216); stroke-width: 2.5px; stroke: rgba(223, 223, 223, 0.09);" d="M 1.25 20.8 L 296.25 20"/><path style="fill: rgb(216, 216, 216); stroke-width: 2.5px; stroke: rgba(223, 223, 223, 0.09);" d="M 1.25 30.8 L 296.25 30"/><path style="fill: rgb(216, 216, 216); stroke-width: 2.5px; stroke: rgba(223, 223, 223, 0.09);" d="M 1.25 40.8 L 296.25 40"/><path style="fill: rgb(216, 216, 216); stroke-width: 2.5px; stroke: rgba(223, 223, 223, 0.09);" d="M 1.25 50.8 L 296.25 50"/><path style="fill: rgb(216, 216, 216); stroke-width: 2.5px; stroke: rgba(223, 223, 223, 0.09);" d="M 1.25 60.8 L 296.25 60"/><path style="fill: rgb(216, 216, 216); stroke-width: 2.5px; stroke: rgba(223, 223, 223, 0.09);" d="M 1.25 70.8 L 296.25 70"/><path style="fill: rgb(216, 216, 216); stroke-width: 2.5px; stroke: rgba(223, 223, 223, 0.09);" d="M 1.25 80.8 L 296.25 80"/><path style="fill: rgb(216, 216, 216); stroke-width: 2.5px; stroke: rgba(223, 223, 223, 0.09);" d="M 1.25 90.8 L 296.25 90"/><path style="fill: rgb(216, 216, 216); stroke-width: 2.5px; stroke: rgba(223, 223, 223, 0.09);" d="M 1.25 100.8 L 296.25 100"/><path style="fill: rgb(216, 216, 216); stroke-width: 2.5px; stroke: rgba(223, 223, 223, 0.09);" d="M 1.25 110.8 L 296.25 110"/><path style="fill: rgb(216, 216, 216); stroke-width: 2.5px; stroke: rgba(223, 223, 223, 0.09);" d="M 1.25 120.8 L 296.25 120"/><path style="fill: rgb(216, 216, 216); stroke-width: 2.5px; stroke: rgba(223, 223, 223, 0.09);" d="M 1.25 130.8 L 296.25 130"/><path style="fill: rgb(216, 216, 216); stroke-width: 2.5px; stroke: rgba(223, 223, 223, 0.09);" d="M 1.25 140.8 L 296.25 140"/><path style="fill: rgb(216, 216, 216); stroke-width: 2.5px; stroke: rgba(223, 223, 223, 0.09);" d="M 1.25 150.8 L 296.25 150"/><path style="fill: rgb(216, 216, 216); stroke-width: 2.5px; stroke: rgba(223, 223, 223, 0.09);" d="M 1.25 160.8 L 296.25 160"/><path style="fill: rgb(216, 216, 216); stroke-width: 2.5px; stroke: rgba(223, 223, 223, 0.09);" d="M 1.25 170.8 L 296.25 170"/><path style="fill: rgb(216, 216, 216); stroke-width: 2.5px; stroke: rgba(223, 223, 223, 0.09);" d="M 1.25 180.8 L 296.25 180"/><path style="fill: rgb(216, 216, 216); stroke-width: 2.5px; stroke: rgba(223, 223, 223, 0.09);" d="M 1.25 190.8 L 296.25 190"/><path style="fill: rgb(216, 216, 216); stroke-width: 2.5px; stroke: rgba(223, 223, 223, 0.09);" d="M 1.25 200.8 L 296.25 200"/><path style="fill: rgb(216, 216, 216); stroke-width: 2.5px; stroke: rgba(223, 223, 223, 0.09);" d="M 1.25 210.8 L 296.25 210"/><path style="fill: rgb(216, 216, 216); stroke-width: 2.5px; stroke: rgba(223, 223, 223, 0.09);" d="M 1.25 220.8 L 296.25 220"/><path style="fill: rgb(216, 216, 216); stroke-width: 2.5px; stroke: rgba(223, 223, 223, 0.09);" d="M 1.25 230.8 L 296.25 230"/><path style="fill: rgb(216, 216, 216); stroke-width: 2.5px; stroke: rgba(223, 223, 223, 0.09);" d="M 15.75 240.8 L 283.75 240"/><path style="fill: rgb(216, 216, 216); stroke-width: 2.5px; stroke: rgba(223, 223, 223, 0.09);" d="M 38.25 250.8 L 261.25 250"/><path style="fill: rgb(216, 216, 216); stroke-width: 2.5px; stroke: rgba(223, 223, 223, 0.09);" d="M 60.75 260.8 L 239.25 260"/><path style="fill: rgb(216, 216, 216); stroke-width: 2.5px; stroke: rgba(223, 223, 223, 0.09);" d="M 83.25 270.8 L 216.75 270"/><path style="fill: rgb(216, 216, 216); stroke-width: 2.5px; stroke: rgba(223, 223, 223, 0.09);" d="M 105.75 280.8 L 194.25 280"/><path style="fill: rgb(216, 216, 216); stroke-width: 2.5px; stroke: rgba(223, 223, 223, 0.09);" d="M 128.25 290.8 L 169.75 290"/></svg>