<?xml version="1.0" encoding="utf-8"?>
<svg xmlns="http://www.w3.org/2000/svg" viewBox="0 0 297.5 12.8" xmlns:bx="https://boxy-svg.com" width="297.5px" height="12.8px"><defs><radialGradient gradientUnits="userSpaceOnUse" cx="250" cy="425.5" r="200" id="gradient-0" gradientTransform="matrix(1, 0, 0, 1.7, -101.25, -472.25)" spreadMethod="pad"><stop offset="0" style="stop-color: rgb(84.706% 84.706% 84.706%)"/><stop offset="1" style="stop-color: rgb(167, 167, 167);"/></radialGradient><filter id="outline-filter-0" bx:preset="outline 1 1.5 #000" color-interpolation-filters="sRGB" x="-50%" y="-50%" width="200%" height="200%"><feMorphology in="SourceAlpha" result="dilated" operator="dilate" radius="1.5"/><feFlood flood-color="#000" result="flood"/><feComposite in="flood" in2="dilated" operator="in" result="outline"/><feMerge><feMergeNode in="outline"/><feMergeNode in="SourceGraphic"/></feMerge></filter><filter id="point-light-filter-0" bx:preset="point-light 1 0.5 0.6 0.5 1 0.54 1.13 0 #ffffff" primitiveUnits="objectBoundingBox" color-interpolation-filters="sRGB" x="-50%" y="-50%" width="200%" height="200%"><feSpecularLighting result="specular-lighting" lighting-color="#ffffff" specularConstant="0.54" specularExponent="1"><fePointLight x="0.5" y="0.6" z="0.5"/></feSpecularLighting><feDiffuseLighting result="diffuse-lighting" lighting-color="#ffffff" diffuseConstant="1.13"><fePointLight x="0.5" y="0.6" z="0.5"/></feDiffuseLighting><feMerge result="lighting"><feMergeNode in="diffuse-lighting"/><feMergeNode in="specular-lighting"/></feMerge><feComposite in="SourceGraphic" in2="lighting" operator="arithmetic" k1="1" k2="0" k3="0" k4="0"/></filter></defs><path style="fill: url(&quot;#gradient-0&quot;); stroke: rgb(255, 255, 255); stroke-width: 2.5px; filter: url(&quot;#outline-filter-0&quot;) url(&quot;#point-light-filter-0&quot;); paint-order: fill;" d="M 2.75 2.75 L 2.75 247.75 L 148.75 312.75 L 294.75 247.75 L 294.75 2.75 L 2.75 2.75 Z"/><path style="fill: rgb(216, 216, 216); stroke-width: 2.5px; stroke: rgba(223, 223, 223, 0.09);" d="M 1.25 13.55 L 296.25 12.75"/><path style="fill: rgb(216, 216, 216); stroke-width: 2.5px; stroke: rgba(223, 223, 223, 0.09);" d="M 1.25 23.55 L 296.25 22.75"/><path style="fill: rgb(216, 216, 216); stroke-width: 2.5px; stroke: rgba(223, 223, 223, 0.09);" d="M 1.25 33.55 L 296.25 32.75"/><path style="fill: rgb(216, 216, 216); stroke-width: 2.5px; stroke: rgba(223, 223, 223, 0.09);" d="M 1.25 43.55 L 296.25 42.75"/><path style="fill: rgb(216, 216, 216); stroke-width: 2.5px; stroke: rgba(223, 223, 223, 0.09);" d="M 1.25 53.55 L 296.25 52.75"/><path style="fill: rgb(216, 216, 216); stroke-width: 2.5px; stroke: rgba(223, 223, 223, 0.09);" d="M 1.25 63.55 L 296.25 62.75"/><path style="fill: rgb(216, 216, 216); stroke-width: 2.5px; stroke: rgba(223, 223, 223, 0.09);" d="M 1.25 73.55 L 296.25 72.75"/><path style="fill: rgb(216, 216, 216); stroke-width: 2.5px; stroke: rgba(223, 223, 223, 0.09);" d="M 1.25 83.55 L 296.25 82.75"/><path style="fill: rgb(216, 216, 216); stroke-width: 2.5px; stroke: rgba(223, 223, 223, 0.09);" d="M 1.25 93.55 L 296.25 92.75"/><path style="fill: rgb(216, 216, 216); stroke-width: 2.5px; stroke: rgba(223, 223, 223, 0.09);" d="M 1.25 103.55 L 296.25 102.75"/><path style="fill: rgb(216, 216, 216); stroke-width: 2.5px; stroke: rgba(223, 223, 223, 0.09);" d="M 1.25 113.55 L 296.25 112.75"/><path style="fill: rgb(216, 216, 216); stroke-width: 2.5px; stroke: rgba(223, 223, 223, 0.09);" d="M 1.25 123.55 L 296.25 122.75"/><path style="fill: rgb(216, 216, 216); stroke-width: 2.5px; stroke: rgba(223, 223, 223, 0.09);" d="M 1.25 133.55 L 296.25 132.75"/><path style="fill: rgb(216, 216, 216); stroke-width: 2.5px; stroke: rgba(223, 223, 223, 0.09);" d="M 1.25 143.55 L 296.25 142.75"/><path style="fill: rgb(216, 216, 216); stroke-width: 2.5px; stroke: rgba(223, 223, 223, 0.09);" d="M 1.25 153.55 L 296.25 152.75"/><path style="fill: rgb(216, 216, 216); stroke-width: 2.5px; stroke: rgba(223, 223, 223, 0.09);" d="M 1.25 163.55 L 296.25 162.75"/><path style="fill: rgb(216, 216, 216); stroke-width: 2.5px; stroke: rgba(223, 223, 223, 0.09);" d="M 1.25 173.55 L 296.25 172.75"/><path style="fill: rgb(216, 216, 216); stroke-width: 2.5px; stroke: rgba(223, 223, 223, 0.09);" d="M 1.25 183.55 L 296.25 182.75"/><path style="fill: rgb(216, 216, 216); stroke-width: 2.5px; stroke: rgba(223, 223, 223, 0.09);" d="M 1.25 193.55 L 296.25 192.75"/><path style="fill: rgb(216, 216, 216); stroke-width: 2.5px; stroke: rgba(223, 223, 223, 0.09);" d="M 1.25 203.55 L 296.25 202.75"/><path style="fill: rgb(216, 216, 216); stroke-width: 2.5px; stroke: rgba(223, 223, 223, 0.09);" d="M 1.25 213.55 L 296.25 212.75"/><path style="fill: rgb(216, 216, 216); stroke-width: 2.5px; stroke: rgba(223, 223, 223, 0.09);" d="M 1.25 223.55 L 296.25 222.75"/><path style="fill: rgb(216, 216, 216); stroke-width: 2.5px; stroke: rgba(223, 223, 223, 0.09);" d="M 1.25 233.55 L 296.25 232.75"/><path style="fill: rgb(216, 216, 216); stroke-width: 2.5px; stroke: rgba(223, 223, 223, 0.09);" d="M 1.25 243.55 L 296.25 242.75"/><path style="fill: rgb(216, 216, 216); stroke-width: 2.5px; stroke: rgba(223, 223, 223, 0.09);" d="M 15.75 253.55 L 283.75 252.75"/><path style="fill: rgb(216, 216, 216); stroke-width: 2.5px; stroke: rgba(223, 223, 223, 0.09);" d="M 38.25 263.55 L 261.25 262.75"/><path style="fill: rgb(216, 216, 216); stroke-width: 2.5px; stroke: rgba(223, 223, 223, 0.09);" d="M 60.75 273.55 L 239.25 272.75"/><path style="fill: rgb(216, 216, 216); stroke-width: 2.5px; stroke: rgba(223, 223, 223, 0.09);" d="M 83.25 283.55 L 216.75 282.75"/><path style="fill: rgb(216, 216, 216); stroke-width: 2.5px; stroke: rgba(223, 223, 223, 0.09);" d="M 105.75 293.55 L 194.25 292.75"/><path style="fill: rgb(216, 216, 216); stroke-width: 2.5px; stroke: rgba(223, 223, 223, 0.09);" d="M 128.25 303.55 L 169.75 302.75"/></svg>